<svg width="171" height="87" viewBox="0 0 171 87" fill="none" xmlns="http://www.w3.org/2000/svg">
<path d="M7.664 0.599998H45.68C66.032 0.599998 74.608 10.2 74.608 24.28C74.608 34.264 70.256 40.28 62.192 43.48C70.384 46.808 74.992 53.208 74.992 63.192C74.992 77.016 66.416 87 46.064 87H7.664C2.8 87 0.496 84.696 0.496 79.96V7.64C0.496 2.904 2.8 0.599998 7.664 0.599998ZM15.344 49.624V70.616C15.344 71.64 15.984 72.024 17.008 72.024H46.448C55.536 72.024 59.76 67.8 59.76 60.76C59.76 53.464 55.28 49.624 46.448 49.624H15.344ZM15.344 16.984V37.08H46.064C55.024 37.08 59.376 33.752 59.376 26.712C59.376 19.928 55.408 15.448 46.192 15.448H17.008C15.984 15.448 15.344 15.96 15.344 16.984ZM92.496 0.599998H107.6V37.208H115.92C130.768 37.208 133.2 35.928 138.064 26.456L151.248 0.599998H167.504L153.936 27.48C150.096 35.16 146 40.152 138.96 43.224C147.024 45.4 150.992 49.88 156.112 59.864L170.064 87H153.168L139.984 61.4C135.248 52.184 132.176 50.904 115.92 50.904H107.6V87H92.496V0.599998Z" fill="#FFFFFE"/>
</svg>
