<svg width="50" height="50" viewBox="0 0 50 50" fill="none" xmlns="http://www.w3.org/2000/svg">
<path d="M19.2308 48.2144V35.6973C19.2308 34.8224 20.1923 33.9296 21.1538 33.9296H28.8462C29.8077 33.9296 30.7692 34.8224 30.7692 35.7152V48.2144C30.7692 48.688 30.9718 49.1421 31.3325 49.477C31.6931 49.8119 32.1823 50 32.6923 50H48.0769C48.587 50 49.0761 49.8119 49.4367 49.477C49.7974 49.1421 50 48.688 50 48.2144V23.216C50.0004 22.9813 49.9511 22.7489 49.8547 22.532C49.7584 22.3151 49.6169 22.1179 49.4385 21.9518L44.2308 17.12V5.35999C44.2308 4.88642 44.0282 4.43225 43.6675 4.09738C43.3069 3.76252 42.8177 3.57439 42.3077 3.57439H38.4615C37.9515 3.57439 37.4624 3.76252 37.1017 4.09738C36.7411 4.43225 36.5385 4.88642 36.5385 5.35999V9.97756L26.3615 0.524587C26.1829 0.358301 25.9707 0.22637 25.7371 0.136353C25.5034 0.0463356 25.253 0 25 0C24.747 0 24.4966 0.0463356 24.2629 0.136353C24.0293 0.22637 23.8171 0.358301 23.6385 0.524587L0.561542 21.9518C0.383073 22.1179 0.241619 22.3151 0.145266 22.532C0.0489133 22.7489 -0.000448268 22.9813 3.06729e-06 23.216V48.2144C3.06729e-06 48.688 0.202612 49.1421 0.563259 49.477C0.923906 49.8119 1.41305 50 1.92308 50H17.3077C17.8177 50 18.3069 49.8119 18.6675 49.477C19.0282 49.1421 19.2308 48.688 19.2308 48.2144Z" fill="#FFFFFE"/>
</svg>
